<?xml version="1.0" encoding="UTF-8"?>
<!DOCTYPE svg PUBLIC "-//W3C//DTD SVG 1.1//EN" "http://www.w3.org/Graphics/SVG/1.1/DTD/svg11.dtd">
<!-- Creator: CorelDRAW 2020 (64-Bit) -->
<svg xmlns="http://www.w3.org/2000/svg" xml:space="preserve" width="1000px" height="1000px" version="1.1" style="shape-rendering:geometricPrecision; text-rendering:geometricPrecision; image-rendering:optimizeQuality; fill-rule:evenodd; clip-rule:evenodd"
viewBox="0 0 1000 1000"
 xmlns:xlink="http://www.w3.org/1999/xlink"
 xmlns:xodm="http://www.corel.com/coreldraw/odm/2003">
 <defs>
  <style type="text/css">
   <![CDATA[
    .str0 {stroke:black;stroke-width:2.36;stroke-miterlimit:22.9256}
    .fil0 {fill:black}
    .fil1 {fill:white}
   ]]>
  </style>
 </defs>
 <g id="Слой_x0020_1">
  <metadata id="CorelCorpID_0Corel-Layer"/>
  <circle class="fil0 str0" cx="500" cy="500" r="475"/>
  <path class="fil1 str0" d="M305.48 385.42c-9,6 -14,7.99 -24,9.99 18.45,-18.5 22.58,-40.26 22.98,-47 12.15,-207.19 220.46,-184.82 278.36,-89.63 137.01,24.08 508.26,-131.9 86.01,72.08 -38.93,18.8 42.17,91.14 139.08,81.03 60.09,29.11 34.68,104.4 -9.58,104.4 -19.85,28.13 -93.3,2.49 -159.5,-22.43 -100,18 -96.35,-30.44 -117,-31 -48.08,-1.29 -11.54,108.11 36,187 47,78 66.14,143.14 47.65,166.56 -15,19 -97.88,51.16 -184.65,4.44 -40.9,-22.02 -182.74,-93.46 -197,-2 -7.01,-5.27 -16.35,-35.44 -4.17,-88.63 -13.18,16.18 -21.54,25.34 -22.18,41.19 -7.63,-24.21 -4.88,-40.8 -3,-51 -18.27,26.02 -7,69.99 -9,58.99 -49.11,-114.93 -28.99,-146.91 17,-198.99 -3.11,-0.4 -22,-9 -23,-23.01 25.52,7.59 41.52,-0.41 46,-9 -7.74,0.98 -20.43,-0.05 -32.26,-8.49 37.26,1.5 48.37,-7.83 60.84,-22.36 30.37,-35.39 55.6,-74.13 51.42,-132.14z"/>
 </g>
</svg>
